<svg xmlns="http://www.w3.org/2000/svg">
  <symbol id="earth" viewBox="0 0 285.93 250">
    <title>Earth symbol</title>
    <path d="M276.94,0H9A9,9,0,0,0,1.22,13.46l134,232.06a9,9,0,0,0,15.54,0l134-232.06A9,9,0,0,0,276.94,0ZM107.18,137h89.5l-44.75,77.51ZM210.5,113H93.37L42.29,24.56H261.58Z" />
  </symbol>

  <symbol id="water" viewBox="0 0 285.93 250">
    <title>Water symbol</title>
    <path d="M1.22,13.46l134,232.06a9,9,0,0,0,15.54,0l134-232.06A9,9,0,0,0,276.94,0H9A9,9,0,0,0,1.22,13.46ZM261.58,24.56,151.93,214.47,42.29,24.56Z" />
  </symbol>

  <symbol id="air" viewBox="0 0 285.93 250">
    <title>Air symbol</title>
    <path d="M284.71,236.54,150.73,4.49a9,9,0,0,0-15.54,0L1.22,236.54A9,9,0,0,0,9,250h268A9,9,0,0,0,284.71,236.54ZM178.74,113H89.24L134,35.53ZM24.35,225.44,75.43,137H192.56l51.08,88.48Z" />
  </symbol>

  <symbol id="fire" viewBox="0 0 285.93 250">
    <title>Fire symbol</title>
    <path d="M284.71,236.54,150.73,4.49a9,9,0,0,0-15.54,0L1.22,236.54A9,9,0,0,0,9,250h268A9,9,0,0,0,284.71,236.54ZM24.35,225.44,134,35.53,243.64,225.44Z" />
  </symbol>

  <symbol id="aether" viewBox="0 0 250 250">
    <title>Aether symbol</title>
    <path d="M125,0A125,125,0,1,0,250,125,125,125,0,0,0,125,0Zm0,235c-52.47,0-95-49.25-95-110S72.53,15,125,15s95,49.25,95,110S177.47,235,125,235Z" />
  </symbol>

  <!-- Additional Icons -->
  <symbol id="wood" viewBox="0 0 285.9 250">
    <title>Wood symbol</title>
    <path d="M281.3,1.1C280,0.4,278.5,0,276.9,0H9C4,0,0,4.1,0,9c0,1.6,0.4,3.1,1.2,4.4l35.2,60.9H18.9v25.4H51l84.2,145.8
    c2.5,4.3,8,5.7,12.3,3.2c1.3-0.8,2.4-1.9,3.2-3.2l134-232.1C287.2,9.1,285.7,3.6,281.3,1.1z M151.9,214.5L107.2,137h89.5
    L151.9,214.5z M210.5,113H93.4l-7.7-13.3h132.5L210.5,113z M232.9,74.3H71L42.3,24.6h219.3L232.9,74.3z" />
  </symbol>

  <symbol id="metal" viewBox="0 0 285.9 250">
    <title>Metal symbol</title>
    <path d="M281.3,1.1C280,0.4,278.5,0,276.9,0H9C4,0,0,4.1,0,9c0,1.6,0.4,3.1,1.2,4.4l134,232.1c2.5,4.3,8,5.7,12.3,3.2
    c1.3-0.8,2.4-1.9,3.2-3.2l38-65.8h79.2V155h-65l81.8-141.6C287.2,9.1,285.7,3.6,281.3,1.1z M151.9,214.5l-20.1-34.8H172L151.9,214.5
    z M117.6,155l-10.4-18h89.5l-10.4,18H117.6z M210.5,113H93.4L42.3,24.6h219.3L210.5,113z"/>
  </symbol>
</svg>