<?xml version="1.0" encoding="utf-8"?>
<!-- Generator: Adobe Illustrator 21.0.2, SVG Export Plug-In . SVG Version: 6.00 Build 0)  -->
<svg version="1.1" id="wood" xmlns="http://www.w3.org/2000/svg" xmlns:xlink="http://www.w3.org/1999/xlink" x="0px" y="0px"
	 viewBox="0 0 285.9 250" style="enable-background:new 0 0 285.9 250;" xml:space="preserve">
<title>Earth symbol</title>
<path d="M281.3,1.1C280,0.4,278.5,0,276.9,0H9C4,0,0,4.1,0,9c0,1.6,0.4,3.1,1.2,4.4l35.2,60.9H18.9v25.4H51l84.2,145.8
	c2.5,4.3,8,5.7,12.3,3.2c1.3-0.8,2.4-1.9,3.2-3.2l134-232.1C287.2,9.1,285.7,3.6,281.3,1.1z M151.9,214.5L107.2,137h89.5
	L151.9,214.5z M210.5,113H93.4l-7.7-13.3h132.5L210.5,113z M232.9,74.3H71L42.3,24.6h219.3L232.9,74.3z"/>
</svg>
